<svg width="284" height="375" viewBox="0 0 284 375" fill="none" xmlns="http://www.w3.org/2000/svg">
<path d="M0 34.2206L0 340.571C0 359.471 15.3211 374.792 34.2207 374.792H231.56C250.459 374.792 265.78 359.471 265.78 340.571V53.9465C265.78 35.047 250.459 19.7259 231.56 19.7259H175.894C160.15 19.7259 147.077 0 131.333 0L34.1963 0C15.2967 0 0 15.3211 0 34.2206Z" fill="#80231A"/>
<path d="M0 131.179L59.3158 107.225L114.069 131.179V152.852L59.3158 125.476L0 152.852V131.179Z" fill="#9F342A"/>
<path d="M0 167.681L59.3158 143.727L114.069 167.681V189.354L59.3158 161.978L0 189.354V167.681Z" fill="#9F342A"/>
<path d="M216.544 107.928L170.52 152.358L114.069 152.358L102.662 130.564L163.683 135.436L208.425 87.8331L216.544 107.928Z" fill="#9F342A"/>
<path d="M216.544 144.43L170.52 188.86L114.069 188.86L102.662 167.066L163.683 171.938L208.425 124.335L216.544 144.43Z" fill="#9F342A"/>
<path d="M264.64 87.3429L247.775 122.113L211.028 110.077L207.606 87.3429L240.69 104.576L264.64 60.4566L264.64 87.3429Z" fill="#9F342A"/>
<path d="M264.64 123.845L247.775 158.615L211.028 146.579L207.606 123.845L240.69 141.078L264.64 96.9586L264.64 123.845Z" fill="#9F342A"/>
</svg>
