<svg width="266" height="133" viewBox="0 0 266 133" fill="none" xmlns="http://www.w3.org/2000/svg">
<rect y="0.19873" width="265.78" height="132.32" rx="34.2206" fill="#242424"/>
<path d="M116.962 53.2699H123.395V55.7886H113.841V36.7619H116.962V53.2699ZM139.83 47.8768C139.83 48.4425 139.794 48.9536 139.721 49.4098H128.195C128.286 50.6144 128.733 51.5817 129.537 52.3118C130.34 53.0418 131.325 53.4068 132.493 53.4068C134.172 53.4068 135.359 52.7042 136.052 51.2988H139.419C138.963 52.6859 138.133 53.8266 136.928 54.7209C135.742 55.5969 134.264 56.035 132.493 56.035C131.051 56.035 129.756 55.7156 128.606 55.0768C127.474 54.4197 126.58 53.5072 125.923 52.3391C125.284 51.1528 124.965 49.784 124.965 48.2327C124.965 46.6813 125.275 45.3216 125.895 44.1536C126.534 42.9672 127.419 42.0547 128.551 41.4159C129.701 40.7771 131.015 40.4577 132.493 40.4577C133.917 40.4577 135.185 40.768 136.299 41.3885C137.412 42.0091 138.279 42.8851 138.899 44.0167C139.52 45.13 139.83 46.4167 139.83 47.8768ZM136.572 46.8912C136.554 45.7414 136.143 44.8197 135.34 44.1262C134.537 43.4326 133.543 43.0859 132.356 43.0859C131.28 43.0859 130.358 43.4326 129.591 44.1262C128.825 44.8015 128.368 45.7231 128.222 46.8912H136.572ZM146.542 43.2501V51.6C146.542 52.1657 146.67 52.5764 146.926 52.8319C147.2 53.0692 147.656 53.1878 148.295 53.1878H150.211V55.7886H147.747C146.342 55.7886 145.265 55.4601 144.517 54.803C143.768 54.146 143.394 53.0783 143.394 51.6V43.2501H141.615V40.7041H143.394V36.9535H146.542V40.7041H150.211V43.2501H146.542ZM163.84 43.2501V51.6C163.84 52.1657 163.968 52.5764 164.223 52.8319C164.497 53.0692 164.953 53.1878 165.592 53.1878H167.508V55.7886H165.045C163.639 55.7886 162.562 55.4601 161.814 54.803C161.066 54.146 160.692 53.0783 160.692 51.6V43.2501H158.912V40.7041H160.692V36.9535H163.84V40.7041H167.508V43.2501H163.84ZM178.187 40.4577C179.337 40.4577 180.359 40.7041 181.253 41.1969C182.166 41.6897 182.878 42.4197 183.389 43.387C183.918 44.3543 184.183 45.5224 184.183 46.8912V55.7886H181.089V47.3566C181.089 46.006 180.751 44.9748 180.076 44.2631C179.401 43.533 178.479 43.168 177.311 43.168C176.143 43.168 175.212 43.533 174.519 44.2631C173.843 44.9748 173.506 46.006 173.506 47.3566V55.7886H170.385V35.53H173.506V42.4562C174.035 41.8174 174.701 41.3246 175.504 40.9779C176.326 40.6311 177.22 40.4577 178.187 40.4577ZM201.989 47.8768C201.989 48.4425 201.952 48.9536 201.879 49.4098H190.354C190.445 50.6144 190.892 51.5817 191.695 52.3118C192.498 53.0418 193.484 53.4068 194.652 53.4068C196.331 53.4068 197.517 52.7042 198.211 51.2988H201.578C201.122 52.6859 200.291 53.8266 199.087 54.7209C197.9 55.5969 196.422 56.035 194.652 56.035C193.21 56.035 191.914 55.7156 190.764 55.0768C189.633 54.4197 188.738 53.5072 188.081 52.3391C187.443 51.1528 187.123 49.784 187.123 48.2327C187.123 46.6813 187.434 45.3216 188.054 44.1536C188.693 42.9672 189.578 42.0547 190.71 41.4159C191.859 40.7771 193.173 40.4577 194.652 40.4577C196.075 40.4577 197.344 40.768 198.457 41.3885C199.57 42.0091 200.437 42.8851 201.058 44.0167C201.678 45.13 201.989 46.4167 201.989 47.8768ZM198.731 46.8912C198.713 45.7414 198.302 44.8197 197.499 44.1262C196.696 43.4326 195.701 43.0859 194.515 43.0859C193.438 43.0859 192.516 43.4326 191.75 44.1262C190.983 44.8015 190.527 45.7231 190.381 46.8912H198.731ZM223.32 40.4577C224.506 40.4577 225.565 40.7041 226.496 41.1969C227.445 41.6897 228.184 42.4197 228.713 43.387C229.261 44.3543 229.535 45.5224 229.535 46.8912V55.7886H226.441V47.3566C226.441 46.006 226.103 44.9748 225.428 44.2631C224.753 43.533 223.831 43.168 222.663 43.168C221.495 43.168 220.564 43.533 219.871 44.2631C219.195 44.9748 218.858 46.006 218.858 47.3566V55.7886H215.764V47.3566C215.764 46.006 215.427 44.9748 214.751 44.2631C214.076 43.533 213.154 43.168 211.986 43.168C210.818 43.168 209.887 43.533 209.194 44.2631C208.519 44.9748 208.181 46.006 208.181 47.3566V55.7886H205.06V40.7041H208.181V42.4288C208.692 41.8083 209.34 41.3246 210.125 40.9779C210.909 40.6311 211.749 40.4577 212.643 40.4577C213.848 40.4577 214.925 40.7132 215.874 41.2243C216.823 41.7353 217.553 42.4745 218.064 43.4418C218.52 42.5292 219.232 41.8083 220.199 41.279C221.167 40.7315 222.207 40.4577 223.32 40.4577ZM116.962 83.949C117.491 83.2189 118.212 82.6258 119.124 82.1695C120.055 81.695 121.086 81.4577 122.218 81.4577C123.55 81.4577 124.755 81.7771 125.832 82.4159C126.908 83.0547 127.757 83.9672 128.378 85.1536C128.998 86.3216 129.308 87.6631 129.308 89.1779C129.308 90.6927 128.998 92.0524 128.378 93.257C127.757 94.4433 126.899 95.3741 125.804 96.0494C124.727 96.7064 123.532 97.035 122.218 97.035C121.05 97.035 120.009 96.8068 119.097 96.3505C118.203 95.8943 117.491 95.3102 116.962 94.5985V96.7886H113.841V76.53H116.962V83.949ZM126.133 89.1779C126.133 88.1376 125.914 87.2433 125.476 86.495C125.056 85.7285 124.49 85.1536 123.778 84.7703C123.085 84.3688 122.336 84.168 121.533 84.168C120.749 84.168 120 84.3688 119.289 84.7703C118.595 85.1718 118.029 85.7558 117.591 86.5224C117.171 87.2889 116.962 88.1923 116.962 89.2327C116.962 90.273 117.171 91.1855 117.591 91.9703C118.029 92.7368 118.595 93.3209 119.289 93.7224C120 94.1239 120.749 94.3247 121.533 94.3247C122.336 94.3247 123.085 94.1239 123.778 93.7224C124.49 93.3026 125.056 92.7003 125.476 91.9156C125.914 91.1308 126.133 90.2182 126.133 89.1779ZM146.22 88.8768C146.22 89.4425 146.183 89.9536 146.11 90.4098H134.585C134.676 91.6144 135.123 92.5817 135.926 93.3118C136.729 94.0418 137.715 94.4068 138.883 94.4068C140.562 94.4068 141.748 93.7042 142.442 92.2988H145.809C145.353 93.6859 144.522 94.8266 143.318 95.7209C142.132 96.5969 140.653 97.035 138.883 97.035C137.441 97.035 136.145 96.7156 134.995 96.0768C133.864 95.4197 132.97 94.5072 132.312 93.3391C131.674 92.1528 131.354 90.784 131.354 89.2327C131.354 87.6813 131.665 86.3216 132.285 85.1536C132.924 83.9672 133.809 83.0547 134.941 82.4159C136.09 81.7771 137.405 81.4577 138.883 81.4577C140.306 81.4577 141.575 81.768 142.688 82.3885C143.801 83.0091 144.668 83.8851 145.289 85.0167C145.909 86.13 146.22 87.4167 146.22 88.8768ZM142.962 87.8912C142.944 86.7414 142.533 85.8197 141.73 85.1262C140.927 84.4326 139.932 84.0859 138.746 84.0859C137.669 84.0859 136.747 84.4326 135.981 85.1262C135.214 85.8015 134.758 86.7231 134.612 87.8912H142.962ZM164.205 81.4577C165.355 81.4577 166.377 81.7041 167.271 82.1969C168.184 82.6897 168.895 83.4197 169.406 84.387C169.936 85.3543 170.2 86.5224 170.2 87.8912V96.7886H167.107V88.3566C167.107 87.006 166.769 85.9748 166.094 85.2631C165.419 84.533 164.497 84.168 163.329 84.168C162.161 84.168 161.23 84.533 160.536 85.2631C159.861 85.9748 159.523 87.006 159.523 88.3566V96.7886H156.403V76.53H159.523V83.4562C160.053 82.8174 160.719 82.3246 161.522 81.9779C162.343 81.6311 163.238 81.4577 164.205 81.4577ZM188.006 88.8768C188.006 89.4425 187.97 89.9536 187.897 90.4098H176.371C176.463 91.6144 176.91 92.5817 177.713 93.3118C178.516 94.0418 179.501 94.4068 180.669 94.4068C182.349 94.4068 183.535 93.7042 184.228 92.2988H187.596C187.139 93.6859 186.309 94.8266 185.104 95.7209C183.918 96.5969 182.44 97.035 180.669 97.035C179.228 97.035 177.932 96.7156 176.782 96.0768C175.65 95.4197 174.756 94.5072 174.099 93.3391C173.46 92.1528 173.141 90.784 173.141 89.2327C173.141 87.6813 173.451 86.3216 174.072 85.1536C174.71 83.9672 175.596 83.0547 176.727 82.4159C177.877 81.7771 179.191 81.4577 180.669 81.4577C182.093 81.4577 183.361 81.768 184.475 82.3885C185.588 83.0091 186.455 83.8851 187.076 85.0167C187.696 86.13 188.006 87.4167 188.006 88.8768ZM184.749 87.8912C184.73 86.7414 184.32 85.8197 183.517 85.1262C182.714 84.4326 181.719 84.0859 180.533 84.0859C179.456 84.0859 178.534 84.4326 177.768 85.1262C177.001 85.8015 176.545 86.7231 176.399 87.8912H184.749ZM190.037 89.1779C190.037 87.6631 190.348 86.3216 190.968 85.1536C191.607 83.9855 192.465 83.0821 193.542 82.4433C194.637 81.7862 195.841 81.4577 197.155 81.4577C198.342 81.4577 199.373 81.695 200.249 82.1695C201.143 82.6258 201.855 83.2007 202.384 83.8942V81.7041H205.532V96.7886H202.384V94.5437C201.855 95.2555 201.134 95.8486 200.221 96.3232C199.309 96.7977 198.269 97.035 197.1 97.035C195.805 97.035 194.618 96.7064 193.542 96.0494C192.465 95.3741 191.607 94.4433 190.968 93.257C190.348 92.0524 190.037 90.6927 190.037 89.1779ZM202.384 89.2327C202.384 88.1923 202.165 87.2889 201.727 86.5224C201.307 85.7558 200.751 85.1718 200.057 84.7703C199.364 84.3688 198.615 84.168 197.812 84.168C197.009 84.168 196.261 84.3688 195.567 84.7703C194.874 85.1536 194.308 85.7285 193.87 86.495C193.45 87.2433 193.24 88.1376 193.24 89.1779C193.24 90.2182 193.45 91.1308 193.87 91.9156C194.308 92.7003 194.874 93.3026 195.567 93.7224C196.279 94.1239 197.027 94.3247 197.812 94.3247C198.615 94.3247 199.364 94.1239 200.057 93.7224C200.751 93.3209 201.307 92.7368 201.727 91.9703C202.165 91.1855 202.384 90.273 202.384 89.2327ZM212.753 83.8942C213.209 83.1277 213.811 82.5345 214.559 82.1148C215.326 81.6767 216.229 81.4577 217.27 81.4577V84.6882H216.476C215.253 84.6882 214.322 84.9984 213.683 85.619C213.063 86.2395 212.753 87.3163 212.753 88.8494V96.7886H209.632V81.7041H212.753V83.8942ZM219.098 89.1779C219.098 87.6631 219.408 86.3216 220.029 85.1536C220.668 83.9855 221.526 83.0821 222.602 82.4433C223.697 81.7862 224.911 81.4577 226.243 81.4577C227.229 81.4577 228.196 81.6767 229.145 82.1148C230.113 82.5345 230.879 83.1003 231.445 83.8121V76.53H234.593V96.7886H231.445V94.5163C230.934 95.2464 230.222 95.8486 229.31 96.3232C228.415 96.7977 227.384 97.035 226.216 97.035C224.902 97.035 223.697 96.7064 222.602 96.0494C221.526 95.3741 220.668 94.4433 220.029 93.257C219.408 92.0524 219.098 90.6927 219.098 89.1779ZM231.445 89.2327C231.445 88.1923 231.226 87.2889 230.788 86.5224C230.368 85.7558 229.812 85.1718 229.118 84.7703C228.424 84.3688 227.676 84.168 226.873 84.168C226.07 84.168 225.322 84.3688 224.628 84.7703C223.935 85.1536 223.369 85.7285 222.931 86.495C222.511 87.2433 222.301 88.1376 222.301 89.1779C222.301 90.2182 222.511 91.1308 222.931 91.9156C223.369 92.7003 223.935 93.3026 224.628 93.7224C225.34 94.1239 226.088 94.3247 226.873 94.3247C227.676 94.3247 228.424 94.1239 229.118 93.7224C229.812 93.3209 230.368 92.7368 230.788 91.9703C231.226 91.1855 231.445 90.273 231.445 89.2327Z" fill="white"/>
<g clip-path="url(#clip0_934_52)">
<path d="M61.0266 37.1956C42.472 37.1956 27.3765 50.2445 27.3765 66.2832C27.3765 82.3217 42.472 95.3707 61.0266 95.3707C79.5812 95.3707 94.6768 82.3217 94.6768 66.2832C94.6768 50.2445 79.5812 37.1956 61.0266 37.1956ZM61.0266 93.216C43.8462 93.216 29.8691 81.1341 29.8691 66.2832C29.8691 51.4321 43.8462 39.3502 61.0266 39.3502C78.2071 39.3502 92.1842 51.4321 92.1842 66.2832C92.1842 81.1341 78.2071 93.216 61.0266 93.216Z" fill="white"/>
<path d="M79.7217 65.2007V67.3553H82.1984C81.867 76.7818 72.7796 84.5949 61.6503 84.5949C50.3118 84.5949 41.0862 76.6216 41.0862 66.8206C41.0862 66.2251 40.5288 65.7438 39.84 65.7438C39.1511 65.7438 38.5938 66.2259 38.5938 66.8214C38.5938 77.8113 48.9366 86.7493 61.6504 86.7493C74.1552 86.7493 84.3588 78.1285 84.6911 67.3553H87.1995V65.2007H79.7217Z" fill="white"/>
<path d="M51.0563 56.5874C50.3674 56.5874 49.8101 57.0693 49.8101 57.6647V64.1286C49.8101 64.7241 50.3675 65.2058 51.0563 65.2058C51.7452 65.2058 52.3025 64.724 52.3025 64.1286V57.6648C52.3025 57.0693 51.7451 56.5874 51.0563 56.5874Z" fill="white"/>
<path d="M62.2731 56.5874C61.5842 56.5874 61.0269 57.0693 61.0269 57.6647V64.1286C61.0269 64.7241 61.5843 65.2058 62.2731 65.2058C62.9619 65.2058 63.5193 64.724 63.5193 64.1286V57.6648C63.5195 57.0693 62.962 56.5874 62.2731 56.5874Z" fill="white"/>
</g>
<defs>
<clipPath id="clip0_934_52">
<rect width="67.3006" height="58.1751" fill="white" transform="translate(27.3765 37.1956)"/>
</clipPath>
</defs>
</svg>
