<svg width="267" height="134" viewBox="0 0 267 134" fill="none" xmlns="http://www.w3.org/2000/svg">
<rect x="0.749268" y="0.693359" width="265.78" height="132.32" rx="22.8138" fill="#5F241E"/>
<path d="M110.438 36.7619L104.141 48.8897V55.7886H101.02V48.8897L94.6962 36.7619H98.173L102.581 46.0973L106.988 36.7619H110.438ZM119.457 56.035C118.034 56.035 116.747 55.7156 115.597 55.0768C114.447 54.4197 113.544 53.5072 112.887 52.3391C112.23 51.1528 111.901 49.784 111.901 48.2327C111.901 46.6996 112.239 45.3399 112.914 44.1536C113.59 42.9672 114.511 42.0547 115.679 41.4159C116.847 40.7771 118.152 40.4577 119.594 40.4577C121.036 40.4577 122.341 40.7771 123.509 41.4159C124.677 42.0547 125.599 42.9672 126.274 44.1536C126.949 45.3399 127.287 46.6996 127.287 48.2327C127.287 49.7657 126.94 51.1254 126.247 52.3118C125.553 53.4981 124.604 54.4197 123.4 55.0768C122.213 55.7156 120.899 56.035 119.457 56.035ZM119.457 53.3247C120.26 53.3247 121.009 53.1331 121.702 52.7498C122.414 52.3665 122.989 51.7916 123.427 51.0251C123.865 50.2585 124.084 49.3277 124.084 48.2327C124.084 47.1376 123.874 46.2159 123.454 45.4676C123.035 44.7011 122.478 44.1262 121.784 43.7429C121.091 43.3596 120.343 43.168 119.54 43.168C118.736 43.168 117.988 43.3596 117.295 43.7429C116.619 44.1262 116.081 44.7011 115.679 45.4676C115.278 46.2159 115.077 47.1376 115.077 48.2327C115.077 49.857 115.488 51.1163 116.309 52.0106C117.149 52.8867 118.198 53.3247 119.457 53.3247ZM144.033 40.7041V55.7886H140.912V54.0091C140.419 54.6296 139.772 55.1224 138.968 55.4874C138.184 55.8342 137.344 56.0076 136.45 56.0076C135.264 56.0076 134.196 55.7612 133.247 55.2684C132.316 54.7756 131.577 54.0456 131.029 53.0783C130.5 52.111 130.235 50.9429 130.235 49.5741V40.7041H133.329V49.1087C133.329 50.4593 133.667 51.4996 134.342 52.2296C135.017 52.9414 135.939 53.2973 137.107 53.2973C138.275 53.2973 139.197 52.9414 139.872 52.2296C140.565 51.4996 140.912 50.4593 140.912 49.1087V40.7041H144.033ZM151.272 42.8942C151.728 42.1277 152.33 41.5345 153.079 41.1148C153.845 40.6767 154.749 40.4577 155.789 40.4577V43.6882H154.995C153.772 43.6882 152.841 43.9984 152.203 44.619C151.582 45.2395 151.272 46.3163 151.272 47.8494V55.7886H148.151V40.7041H151.272V42.8942ZM173.572 40.4577C174.721 40.4577 175.743 40.7041 176.638 41.1969C177.55 41.6897 178.262 42.4197 178.773 43.387C179.302 44.3543 179.567 45.5224 179.567 46.8912V55.7886H176.473V47.3566C176.473 46.006 176.136 44.9748 175.461 44.2631C174.785 43.533 173.864 43.168 172.696 43.168C171.527 43.168 170.597 43.533 169.903 44.2631C169.228 44.9748 168.89 46.006 168.89 47.3566V55.7886H165.769V35.53H168.89V42.4562C169.419 41.8174 170.086 41.3246 170.889 40.9779C171.71 40.6311 172.604 40.4577 173.572 40.4577ZM190.091 56.035C188.667 56.035 187.381 55.7156 186.231 55.0768C185.081 54.4197 184.178 53.5072 183.521 52.3391C182.864 51.1528 182.535 49.784 182.535 48.2327C182.535 46.6996 182.873 45.3399 183.548 44.1536C184.223 42.9672 185.145 42.0547 186.313 41.4159C187.481 40.7771 188.786 40.4577 190.228 40.4577C191.67 40.4577 192.975 40.7771 194.143 41.4159C195.311 42.0547 196.232 42.9672 196.908 44.1536C197.583 45.3399 197.921 46.6996 197.921 48.2327C197.921 49.7657 197.574 51.1254 196.88 52.3118C196.187 53.4981 195.238 54.4197 194.033 55.0768C192.847 55.7156 191.533 56.035 190.091 56.035ZM190.091 53.3247C190.894 53.3247 191.642 53.1331 192.336 52.7498C193.048 52.3665 193.623 51.7916 194.061 51.0251C194.499 50.2585 194.718 49.3277 194.718 48.2327C194.718 47.1376 194.508 46.2159 194.088 45.4676C193.668 44.7011 193.111 44.1262 192.418 43.7429C191.724 43.3596 190.976 43.168 190.173 43.168C189.37 43.168 188.622 43.3596 187.928 43.7429C187.253 44.1262 186.714 44.7011 186.313 45.4676C185.911 46.2159 185.711 47.1376 185.711 48.2327C185.711 49.857 186.121 51.1163 186.943 52.0106C187.782 52.8867 188.832 53.3247 190.091 53.3247ZM219.266 40.4577C220.452 40.4577 221.511 40.7041 222.442 41.1969C223.391 41.6897 224.13 42.4197 224.659 43.387C225.207 44.3543 225.48 45.5224 225.48 46.8912V55.7886H222.387V47.3566C222.387 46.006 222.049 44.9748 221.374 44.2631C220.699 43.533 219.777 43.168 218.609 43.168C217.441 43.168 216.51 43.533 215.817 44.2631C215.141 44.9748 214.804 46.006 214.804 47.3566V55.7886H211.71V47.3566C211.71 46.006 211.372 44.9748 210.697 44.2631C210.022 43.533 209.1 43.168 207.932 43.168C206.764 43.168 205.833 43.533 205.14 44.2631C204.464 44.9748 204.127 46.006 204.127 47.3566V55.7886H201.006V40.7041H204.127V42.4288C204.638 41.8083 205.286 41.3246 206.07 40.9779C206.855 40.6311 207.695 40.4577 208.589 40.4577C209.794 40.4577 210.87 40.7132 211.82 41.2243C212.769 41.7353 213.499 42.4745 214.01 43.4418C214.466 42.5292 215.178 41.8083 216.145 41.279C217.112 40.7315 218.153 40.4577 219.266 40.4577ZM243.277 47.8768C243.277 48.4425 243.24 48.9536 243.167 49.4098H231.642C231.733 50.6144 232.18 51.5817 232.983 52.3118C233.786 53.0418 234.772 53.4068 235.94 53.4068C237.619 53.4068 238.805 52.7042 239.499 51.2988H242.866C242.41 52.6859 241.58 53.8266 240.375 54.7209C239.189 55.5969 237.71 56.035 235.94 56.035C234.498 56.035 233.202 55.7156 232.053 55.0768C230.921 54.4197 230.027 53.5072 229.37 52.3391C228.731 51.1528 228.411 49.784 228.411 48.2327C228.411 46.6813 228.722 45.3216 229.342 44.1536C229.981 42.9672 230.866 42.0547 231.998 41.4159C233.148 40.7771 234.462 40.4577 235.94 40.4577C237.364 40.4577 238.632 40.768 239.745 41.3885C240.859 42.0091 241.726 42.8851 242.346 44.0167C242.967 45.13 243.277 46.4167 243.277 47.8768ZM240.019 46.8912C240.001 45.7414 239.59 44.8197 238.787 44.1262C237.984 43.4326 236.989 43.0859 235.803 43.0859C234.726 43.0859 233.805 43.4326 233.038 44.1262C232.272 44.8015 231.815 45.7231 231.669 46.8912H240.019ZM102.663 84.2501H99.8703V96.7886H96.722V84.2501H94.9426V81.7041H96.722V80.6364C96.722 78.9026 97.1783 77.6433 98.0909 76.8585C99.0217 76.0554 100.473 75.6539 102.444 75.6539V78.2547C101.495 78.2547 100.829 78.4372 100.445 78.8022C100.062 79.149 99.8703 79.7604 99.8703 80.6364V81.7041H102.663V84.2501ZM111.972 97.035C110.548 97.035 109.261 96.7156 108.112 96.0768C106.962 95.4197 106.058 94.5072 105.401 93.3391C104.744 92.1528 104.416 90.784 104.416 89.2327C104.416 87.6996 104.753 86.3399 105.429 85.1536C106.104 83.9672 107.026 83.0547 108.194 82.4159C109.362 81.7771 110.667 81.4577 112.108 81.4577C113.55 81.4577 114.855 81.7771 116.023 82.4159C117.191 83.0547 118.113 83.9672 118.788 85.1536C119.464 86.3399 119.801 87.6996 119.801 89.2327C119.801 90.7657 119.455 92.1254 118.761 93.3118C118.067 94.4981 117.118 95.4197 115.914 96.0768C114.728 96.7156 113.413 97.035 111.972 97.035ZM111.972 94.3247C112.775 94.3247 113.523 94.1331 114.216 93.7498C114.928 93.3665 115.503 92.7916 115.941 92.0251C116.379 91.2585 116.598 90.3277 116.598 89.2327C116.598 88.1376 116.388 87.2159 115.969 86.4676C115.549 85.7011 114.992 85.1262 114.299 84.7429C113.605 84.3596 112.857 84.168 112.054 84.168C111.251 84.168 110.502 84.3596 109.809 84.7429C109.134 85.1262 108.595 85.7011 108.194 86.4676C107.792 87.2159 107.591 88.1376 107.591 89.2327C107.591 90.857 108.002 92.1163 108.823 93.0106C109.663 93.8867 110.712 94.3247 111.972 94.3247ZM126.007 83.8942C126.464 83.1277 127.066 82.5345 127.814 82.1148C128.581 81.6767 129.484 81.4577 130.525 81.4577V84.6882H129.731C128.508 84.6882 127.577 84.9984 126.938 85.619C126.318 86.2395 126.007 87.3163 126.007 88.8494V96.7886H122.886V81.7041H126.007V83.8942ZM148.307 81.4577C149.457 81.4577 150.479 81.7041 151.373 82.1969C152.286 82.6897 152.998 83.4197 153.509 84.387C154.038 85.3543 154.303 86.5224 154.303 87.8912V96.7886H151.209V88.3566C151.209 87.006 150.871 85.9748 150.196 85.2631C149.521 84.533 148.599 84.168 147.431 84.168C146.263 84.168 145.332 84.533 144.639 85.2631C143.963 85.9748 143.626 87.006 143.626 88.3566V96.7886H140.505V76.53H143.626V83.4562C144.155 82.8174 144.821 82.3246 145.624 81.9779C146.445 81.6311 147.34 81.4577 148.307 81.4577ZM172.109 88.8768C172.109 89.4425 172.072 89.9536 171.999 90.4098H160.474C160.565 91.6144 161.012 92.5817 161.815 93.3118C162.618 94.0418 163.604 94.4068 164.772 94.4068C166.451 94.4068 167.637 93.7042 168.331 92.2988H171.698C171.242 93.6859 170.411 94.8266 169.207 95.7209C168.02 96.5969 166.542 97.035 164.772 97.035C163.33 97.035 162.034 96.7156 160.884 96.0768C159.753 95.4197 158.858 94.5072 158.201 93.3391C157.563 92.1528 157.243 90.784 157.243 89.2327C157.243 87.6813 157.553 86.3216 158.174 85.1536C158.813 83.9672 159.698 83.0547 160.829 82.4159C161.979 81.7771 163.293 81.4577 164.772 81.4577C166.195 81.4577 167.464 81.768 168.577 82.3885C169.69 83.0091 170.557 83.8851 171.178 85.0167C171.798 86.13 172.109 87.4167 172.109 88.8768ZM168.851 87.8912C168.833 86.7414 168.422 85.8197 167.619 85.1262C166.816 84.4326 165.821 84.0859 164.635 84.0859C163.558 84.0859 162.636 84.4326 161.87 85.1262C161.103 85.8015 160.647 86.7231 160.501 87.8912H168.851ZM178.301 76.53V96.7886H175.18V76.53H178.301ZM185.519 83.9216C186.049 83.2281 186.769 82.644 187.682 82.1695C188.595 81.695 189.626 81.4577 190.776 81.4577C192.09 81.4577 193.285 81.7862 194.362 82.4433C195.457 83.0821 196.315 83.9855 196.935 85.1536C197.556 86.3216 197.866 87.6631 197.866 89.1779C197.866 90.6927 197.556 92.0524 196.935 93.257C196.315 94.4433 195.457 95.3741 194.362 96.0494C193.285 96.7064 192.09 97.035 190.776 97.035C189.626 97.035 188.604 96.8068 187.709 96.3505C186.815 95.876 186.085 95.292 185.519 94.5985V103.961H182.398V81.7041H185.519V83.9216ZM194.69 89.1779C194.69 88.1376 194.471 87.2433 194.033 86.495C193.614 85.7285 193.048 85.1536 192.336 84.7703C191.642 84.3688 190.894 84.168 190.091 84.168C189.306 84.168 188.558 84.3688 187.846 84.7703C187.153 85.1718 186.587 85.7558 186.149 86.5224C185.729 87.2889 185.519 88.1923 185.519 89.2327C185.519 90.273 185.729 91.1855 186.149 91.9703C186.587 92.7368 187.153 93.3209 187.846 93.7224C188.558 94.1239 189.306 94.3247 190.091 94.3247C190.894 94.3247 191.642 94.1239 192.336 93.7224C193.048 93.3026 193.614 92.7003 194.033 91.9156C194.471 91.1308 194.69 90.2182 194.69 89.1779Z" fill="#F35038"/>
<path d="M52.6507 50.529L51.3408 51.7897C51.6836 52.1458 52.1565 52.3469 52.6507 52.3469C53.145 52.3469 53.6179 52.1458 53.9606 51.7897L52.6507 50.529ZM40.5324 76.9993C39.7571 76.3613 38.6115 76.4726 37.9734 77.2478C37.3354 78.0229 37.4466 79.1687 38.2219 79.8067L40.5324 76.9993ZM29.2401 69.7046C29.7218 70.5855 30.8265 70.9091 31.7074 70.4272C32.5883 69.9453 32.9119 68.8407 32.4301 67.9599L29.2401 69.7046ZM30.2291 59.3436C30.2291 54.13 33.1751 49.7579 37.1964 47.9197C41.1031 46.134 46.3525 46.6069 51.3408 51.7897L53.9606 49.2683C48.0416 43.1187 41.1711 42.1051 35.6848 44.6129C30.3132 47.0683 26.5931 52.7697 26.5931 59.3436H30.2291ZM44.1606 84.4627C45.4022 85.4415 46.7352 86.4852 48.0859 87.2745C49.4363 88.0635 50.9772 88.7049 52.6507 88.7049V85.0689C51.9003 85.0689 51.0172 84.7763 49.9204 84.1352C48.824 83.4945 47.6867 82.6125 46.4116 81.6073L44.1606 84.4627ZM61.1409 84.4627C64.5989 81.7365 69.0193 78.6129 72.4867 74.7084C76.0165 70.7338 78.7083 65.8047 78.7083 59.3436H75.0724C75.0724 64.6701 72.8928 68.7755 69.768 72.2941C66.581 75.8828 62.5638 78.7111 58.89 81.6073L61.1409 84.4627ZM78.7083 59.3436C78.7083 52.7697 74.9883 47.0683 69.6165 44.6129C64.1304 42.1051 57.2599 43.1187 51.3408 49.2683L53.9606 51.7897C58.9489 46.6069 64.1982 46.134 68.1049 47.9197C72.1263 49.7579 75.0724 54.13 75.0724 59.3436H78.7083ZM58.89 81.6073C57.6148 82.6125 56.4774 83.4945 55.3811 84.1352C54.2842 84.7763 53.4012 85.0689 52.6507 85.0689V88.7049C54.3242 88.7049 55.8652 88.0635 57.2155 87.2745C58.5664 86.4852 59.8991 85.4415 61.1409 84.4627L58.89 81.6073ZM46.4116 81.6073C44.4823 80.0865 42.5217 78.6364 40.5324 76.9993L38.2219 79.8067C40.2344 81.463 42.3603 83.0434 44.1606 84.4627L46.4116 81.6073ZM32.4301 67.9599C31.0697 65.4726 30.2291 62.6553 30.2291 59.3436H26.5931C26.5931 63.3129 27.6111 66.7261 29.2401 69.7046L32.4301 67.9599Z" fill="#F35038"/>
</svg>
